<?xml version="1.0" encoding="UTF-8"?>
<svg version="1.1" xmlns="http://www.w3.org/2000/svg" width="500" height="500">
<path d="M0 0 C165 0 330 0 500 0 C500 165 500 330 500 500 C335 500 170 500 0 500 C0 335 0 170 0 0 Z " fill="#1D8ADA" transform="translate(0,0)"/>
<path d="M0 0 C165 0 330 0 500 0 C500 165 500 330 500 500 C335 500 170 500 0 500 C0 335 0 170 0 0 Z M118.26171875 104.92578125 C116.21675333 106.80121586 114.12380525 108.59032533 112 110.375 C98.24597952 122.45102998 86.95714891 138.12759253 78 154 C77.61102539 154.68368652 77.22205078 155.36737305 76.82128906 156.07177734 C66.50097695 174.39617227 59.29770069 193.41517974 55 214 C54.83628906 214.73847168 54.67257813 215.47694336 54.50390625 216.23779297 C51.9391789 228.15264722 51.71570501 240.05155449 51.6875 252.1875 C51.68382416 252.94232666 51.68014832 253.69715332 51.67636108 254.47485352 C51.59494049 286.51712471 58.6637198 317.826147 73.97021484 346.09667969 C75.02568282 348.04746877 76.053493 350.01146519 77.08203125 351.9765625 C84.47926578 365.85458984 93.8061869 378.0669258 104.625 389.44921875 C107 392 107 392 109.09375 394.6328125 C111.99875232 398.2402539 115.47181434 401.01909066 119 404 C120.26457031 405.11375 120.26457031 405.11375 121.5546875 406.25 C130.15143384 413.67987495 139.43296818 419.89095895 149 426 C150.01707031 426.66 151.03414063 427.32 152.08203125 428 C193.1714364 453.39431048 245.37979781 459.46088539 292 450 C292.7822998 449.85046875 293.56459961 449.7009375 294.37060547 449.546875 C312.81275034 445.99096936 330.59198186 439.07295682 347 430 C348.04945801 429.42378906 348.04945801 429.42378906 349.12011719 428.8359375 C362.21640021 421.57648692 373.72174909 413.23923152 384.73828125 403.07421875 C386.78324667 401.19878414 388.87619475 399.40967467 391 397.625 C424.20745549 368.55180604 447.37618912 320.12098875 450.83227539 276.30151367 C451.88687856 255.54256363 452.95849407 233.30114018 448 213 C447.65340332 211.55512207 447.65340332 211.55512207 447.29980469 210.08105469 C434.29621679 157.29793752 402.40278484 111.33408436 355.84765625 82.79296875 C332.80217174 69.06146926 308.38954049 60.5235644 282 56 C281.03215576 55.82122314 280.06431152 55.64244629 279.06713867 55.45825195 C270.39108146 53.95938713 261.84309397 53.64004899 253.0625 53.6875 C251.9804277 53.69073273 251.9804277 53.69073273 250.87649536 53.69403076 C202.00434322 53.92709851 154.2986104 71.67434982 118.26171875 104.92578125 Z " fill="#FEFEFE" transform="translate(0,0)"/>
<path d="M0 0 C0.84771973 0.00249756 1.69543945 0.00499512 2.56884766 0.00756836 C4.18605713 0.02122437 4.18605713 0.02122437 5.8359375 0.03515625 C10.9715625 0.06609375 10.9715625 0.06609375 16.2109375 0.09765625 C16.2109375 7.02765625 16.2109375 13.95765625 16.2109375 21.09765625 C19.8409375 21.09765625 23.4709375 21.09765625 27.2109375 21.09765625 C27.2109375 14.16765625 27.2109375 7.23765625 27.2109375 0.09765625 C47.0109375 0.09765625 66.8109375 0.09765625 87.2109375 0.09765625 C87.2109375 7.02765625 87.2109375 13.95765625 87.2109375 21.09765625 C91.1709375 21.09765625 95.1309375 21.09765625 99.2109375 21.09765625 C99.2109375 14.49765625 99.2109375 7.89765625 99.2109375 1.09765625 C118.6809375 1.09765625 138.1509375 1.09765625 158.2109375 1.09765625 C158.2109375 7.69765625 158.2109375 14.29765625 158.2109375 21.09765625 C161.8409375 21.09765625 165.4709375 21.09765625 169.2109375 21.09765625 C169.2109375 14.16765625 169.2109375 7.23765625 169.2109375 0.09765625 C172.5728125 0.01515625 175.9346875 -0.06734375 179.3984375 -0.15234375 C180.44926514 -0.18875977 181.50009277 -0.22517578 182.58276367 -0.26269531 C186.95952829 -0.3147347 189.51062518 -0.32762752 193.32421875 1.98828125 C196.67885611 5.73880749 196.34991102 8.89076405 196.33119202 13.70315552 C196.33247604 14.8911525 196.33247604 14.8911525 196.33378601 16.10314941 C196.33544838 18.77988903 196.32990596 21.45656683 196.32446289 24.13330078 C196.32415673 26.07593216 196.32428974 28.01856366 196.32482815 29.96119499 C196.32505453 35.17805276 196.31924568 40.39488774 196.31221771 45.61174011 C196.30653582 50.50149612 196.3062553 55.39124649 196.30554199 60.28100586 C196.3002882 74.59489236 196.28632713 88.90877459 196.2734375 103.22265625 C196.2528125 135.19140625 196.2321875 167.16015625 196.2109375 200.09765625 C127.9009375 200.09765625 59.5909375 200.09765625 -10.7890625 200.09765625 C-10.8715625 168.19078125 -10.9540625 136.28390625 -11.0390625 103.41015625 C-11.07547852 93.32751221 -11.11189453 83.24486816 -11.14941406 72.85668945 C-11.16748047 60.56481934 -11.16748047 60.56481934 -11.1708374 54.81437683 C-11.174571 50.78950724 -11.18958836 46.7648477 -11.21136475 42.74003601 C-11.23875871 37.60915588 -11.24703511 32.47858211 -11.2413516 27.34763563 C-11.24254041 25.46270834 -11.25049763 23.57777057 -11.26592302 21.69290602 C-11.28577388 19.14952077 -11.28104105 16.60733087 -11.27008057 14.06391907 C-11.28173122 13.32385211 -11.29338188 12.58378515 -11.30538559 11.82129192 C-11.24909561 6.9726705 -10.23983199 4.49846994 -6.7890625 1.09765625 C-4.33631109 -0.12871945 -2.7384844 -0.01649689 0 0 Z " fill="#FCFDFE" transform="translate(158.7890625,159.90234375)"/>
<path d="M0 0 C0 64.02 0 128.04 0 194 C67.98 194 135.96 194 206 194 C199.23412647 201.89351912 199.23412647 201.89351912 196.23564148 205.10667419 C195.55146652 205.83991409 194.86729156 206.57315399 194.16238403 207.32861328 C193.43163666 208.10760986 192.70088928 208.88660645 191.94799805 209.68920898 C191.16132248 210.52903824 190.37464691 211.36886749 189.56413269 212.23414612 C182.30458551 219.96078962 174.95834466 227.60288875 167.57799053 235.21394253 C162.63773878 240.31266676 157.73332124 245.43811981 152.90307617 250.64135742 C117.65706353 288.55251709 117.65706353 288.55251709 102.05470371 289.92844105 C94.8221411 290.14439465 87.99805199 288.68896139 81 287 C77.36345382 286.42648421 73.72234535 285.93326829 70.0736084 285.44487 C65.5498499 284.7901072 61.12693296 283.82805433 56.6875 282.75 C55.79651611 282.53456543 54.90553223 282.31913086 53.98754883 282.09716797 C45.43551334 279.96316322 37.19309315 277.23908364 29 274 C28.33693848 273.73993164 27.67387695 273.47986328 26.99072266 273.21191406 C-0.77770207 262.14787944 -27.93115021 243.00698181 -47 220 C-47.75796875 219.12988281 -48.5159375 218.25976562 -49.296875 217.36328125 C-65.16999282 198.90215509 -77.70960295 177.32816236 -85.28710938 154.17578125 C-85.96455909 152.1081676 -86.67388124 150.05425703 -87.390625 148 C-92.13994504 134.03254604 -95.54673145 118.77655459 -96 104 C-96.10350738 103.3812629 -96.20701475 102.76252581 -96.31365871 102.1250391 C-96.72151541 98.35407782 -96.58170694 95.89758848 -94.48483467 92.66206169 C-92.1886187 90.07258142 -89.78536842 87.66131513 -87.29516602 85.25756836 C-85.90769165 83.8657132 -85.90769165 83.8657132 -84.4921875 82.44573975 C-81.96454252 79.91126182 -79.41009724 77.40548644 -76.84966779 74.90419078 C-74.17439695 72.2815859 -71.52432875 69.63375391 -68.87132263 66.98866272 C-64.41759446 62.55513222 -59.94801394 58.13815509 -55.46655273 53.73266602 C-49.13780127 47.51117397 -42.83765343 41.26133063 -36.54325211 35.00511348 C-27.65867803 26.17743 -18.76045176 17.3634527 -9.83422852 8.57788086 C-8.50714119 7.26660973 -8.50714119 7.26660973 -7.15324402 5.92884827 C-6.35252472 5.14251007 -5.55180542 4.35617188 -4.7268219 3.54600525 C-4.02718102 2.85713195 -3.32754015 2.16825865 -2.60669804 1.4585104 C-1 0 -1 0 0 0 Z " fill="#197CC5" transform="translate(148,166)"/>
<path d="M0 0 C60.39 0 120.78 0 183 0 C183 6.6 183 13.2 183 20 C122.61 20 62.22 20 0 20 C0 13.4 0 6.8 0 0 Z " fill="#165788" transform="translate(160,197)"/>
<path d="M0 0 C10.23 0 20.46 0 31 0 C31 10.23 31 20.46 31 31 C20.77 31 10.54 31 0 31 C0 20.77 0 10.54 0 0 Z " fill="#185D90" transform="translate(312,317)"/>
<path d="M0 0 C10.23 0 20.46 0 31 0 C31 10.23 31 20.46 31 31 C20.77 31 10.54 31 0 31 C0 20.77 0 10.54 0 0 Z " fill="#19659D" transform="translate(274,317)"/>
<path d="M0 0 C10.23 0 20.46 0 31 0 C31 10.23 31 20.46 31 31 C20.77 31 10.54 31 0 31 C0 20.77 0 10.54 0 0 Z " fill="#1B6CA9" transform="translate(236,317)"/>
<path d="M0 0 C10.23 0 20.46 0 31 0 C31 10.23 31 20.46 31 31 C20.77 31 10.54 31 0 31 C0 20.77 0 10.54 0 0 Z " fill="#1C74B5" transform="translate(198,317)"/>
<path d="M0 0 C10.23 0 20.46 0 31 0 C31 10.23 31 20.46 31 31 C20.77 31 10.54 31 0 31 C0 20.77 0 10.54 0 0 Z " fill="#1E7CC2" transform="translate(160,317)"/>
<path d="M0 0 C10.23 0 20.46 0 31 0 C31 10.23 31 20.46 31 31 C20.77 31 10.54 31 0 31 C0 20.77 0 10.54 0 0 Z " fill="#165584" transform="translate(312,276)"/>
<path d="M0 0 C10.23 0 20.46 0 31 0 C31 10.23 31 20.46 31 31 C20.77 31 10.54 31 0 31 C0 20.77 0 10.54 0 0 Z " fill="#185C8F" transform="translate(274,276)"/>
<path d="M0 0 C10.23 0 20.46 0 31 0 C31 10.23 31 20.46 31 31 C20.77 31 10.54 31 0 31 C0 20.77 0 10.54 0 0 Z " fill="#19649C" transform="translate(236,276)"/>
<path d="M0 0 C10.23 0 20.46 0 31 0 C31 10.23 31 20.46 31 31 C20.77 31 10.54 31 0 31 C0 20.77 0 10.54 0 0 Z " fill="#1B6CA8" transform="translate(198,276)"/>
<path d="M0 0 C10.23 0 20.46 0 31 0 C31 10.23 31 20.46 31 31 C20.77 31 10.54 31 0 31 C0 20.77 0 10.54 0 0 Z " fill="#1C74B5" transform="translate(160,276)"/>
<path d="M0 0 C10.23 0 20.46 0 31 0 C31 10.23 31 20.46 31 31 C20.77 31 10.54 31 0 31 C0 20.77 0 10.54 0 0 Z " fill="#165482" transform="translate(312,235)"/>
<path d="M0 0 C10.23 0 20.46 0 31 0 C31 10.23 31 20.46 31 31 C20.77 31 10.54 31 0 31 C0 20.77 0 10.54 0 0 Z " fill="#165583" transform="translate(274,235)"/>
<path d="M0 0 C10.23 0 20.46 0 31 0 C31 10.23 31 20.46 31 31 C20.77 31 10.54 31 0 31 C0 20.77 0 10.54 0 0 Z " fill="#185C8E" transform="translate(236,235)"/>
<path d="M0 0 C10.23 0 20.46 0 31 0 C31 10.23 31 20.46 31 31 C20.77 31 10.54 31 0 31 C0 20.77 0 10.54 0 0 Z " fill="#19649B" transform="translate(198,235)"/>
<path d="M0 0 C10.23 0 20.46 0 31 0 C31 10.23 31 20.46 31 31 C20.77 31 10.54 31 0 31 C0 20.77 0 10.54 0 0 Z " fill="#1B6BA7" transform="translate(160,235)"/>
<path d="M0 0 C2.31 0 4.62 0 7 0 C7 10.23 7 20.46 7 31 C4.69 31 2.38 31 0 31 C0 20.77 0 10.54 0 0 Z " fill="#FBFCFD" transform="translate(319,148)"/>
<path d="M0 0 C2.31 0 4.62 0 7 0 C7 10.23 7 20.46 7 31 C4.69 31 2.38 31 0 31 C0 20.77 0 10.54 0 0 Z " fill="#FBFCFD" transform="translate(248,148)"/>
<path d="M0 0 C2.31 0 4.62 0 7 0 C7 10.23 7 20.46 7 31 C4.69 31 2.38 31 0 31 C0 20.77 0 10.54 0 0 Z " fill="#FCFDFE" transform="translate(177,148)"/>
<path d="M0 0 C0.33 0 0.66 0 1 0 C1 9.57 1 19.14 1 29 C3.97 29 6.94 29 10 29 C10 23.39 10 17.78 10 12 C10.33 12 10.66 12 11 12 C11 18.27 11 24.54 11 31 C7.37 31 3.74 31 0 31 C0 24.07 0 17.14 0 10 C-2.64 10 -5.28 10 -8 10 C-7.04367001 8.70684939 -6.08486149 7.41553147 -5.125 6.125 C-4.59132813 5.40570313 -4.05765625 4.68640625 -3.5078125 3.9453125 C-2 2 -2 2 0 0 Z " fill="#155382" transform="translate(317,150)"/>
<path d="M0 0 C0.33 0 0.66 0 1 0 C1 9.57 1 19.14 1 29 C3.97 29 6.94 29 10 29 C10 23.39 10 17.78 10 12 C10.33 12 10.66 12 11 12 C11 18.27 11 24.54 11 31 C7.37 31 3.74 31 0 31 C0 24.07 0 17.14 0 10 C-2.64 10 -5.28 10 -8 10 C-7.04367001 8.70684939 -6.08486149 7.41553147 -5.125 6.125 C-4.59132812 5.40570313 -4.05765625 4.68640625 -3.5078125 3.9453125 C-2 2 -2 2 0 0 Z " fill="#125281" transform="translate(246,150)"/>
<path d="M0 0 C0.33 0 0.66 0 1 0 C1 9.57 1 19.14 1 29 C3.97 29 6.94 29 10 29 C10 23.39 10 17.78 10 12 C10.33 12 10.66 12 11 12 C11 18.27 11 24.54 11 31 C7.37 31 3.74 31 0 31 C0 24.07 0 17.14 0 10 C-2.64 10 -5.28 10 -8 10 C-7.04367001 8.70684939 -6.08486149 7.41553147 -5.125 6.125 C-4.59132812 5.40570313 -4.05765625 4.68640625 -3.5078125 3.9453125 C-2 2 -2 2 0 0 Z " fill="#125789" transform="translate(175,150)"/>
</svg>
